<svg xmlns="http://www.w3.org/2000/svg" xmlns:xlink="http://www.w3.org/1999/xlink" viewBox="0 0 499.55 498"><defs><style>.cls-1{fill:none;}.cls-2,.cls-4{fill:#fff;}.cls-3{clip-path:url(#clip-path);}.cls-4{stroke:#eaeaea;stroke-miterlimit:10;stroke-width:3px;}</style><clipPath id="clip-path"><rect class="cls-1" x="9.95" y="4.35" width="479.64" height="498"/></clipPath></defs><g id="Calque_2" data-name="Calque 2"><rect class="cls-2" width="499.55" height="498"/></g><g id="Calque_1" data-name="Calque 1"><g class="cls-3"><path class="cls-4" d="M27.08,34.17a22.53,22.53,0,0,0-15,23.29h14A2.87,2.87,0,0,1,29,60.33a2.93,2.93,0,0,1-.86,2,2.83,2.83,0,0,1-2,.83L13.48,63.1l17,49.5A4.15,4.15,0,0,0,33,115.09a4.05,4.05,0,0,0,5.12-2.49l8.66-25.18H34.33a2.8,2.8,0,0,1-2.87-2.74.29.29,0,0,1,0-.13,2.83,2.83,0,0,1,2.81-2.87H48.76l6.6-19.25A22.26,22.26,0,0,0,27.08,34.15Zm7.25-16.06C31.63,10.45,24.28,5.64,15,6.63c-1.07,11.65,7,20.27,18.25,20.23h2c11.38-.08,19.45-8.71,18.35-20.35C44.38,5.64,36.92,10.58,34.33,18.11Z"/><path class="cls-4" d="M88.37,34.17a22.53,22.53,0,0,0-15,23.29h14a2.87,2.87,0,0,1,2.87,2.87,3,3,0,0,1-.86,2,2.83,2.83,0,0,1-2,.83L74.77,63.1l17,49.5a4.15,4.15,0,0,0,2.49,2.49,4.05,4.05,0,0,0,5.12-2.49l8.65-25.18H95.62a2.8,2.8,0,0,1-2.87-2.74.29.29,0,0,1,0-.13,2.83,2.83,0,0,1,2.81-2.87h14.49l6.6-19.25A22.26,22.26,0,0,0,88.37,34.15Zm7.25-16.06C92.92,10.45,85.57,5.64,76.24,6.63c-1.07,11.65,7,20.27,18.25,20.23h2c11.38-.08,19.45-8.71,18.35-20.35C105.67,5.64,98.21,10.58,95.62,18.11Z"/><path class="cls-4" d="M149.66,34.17a22.53,22.53,0,0,0-15,23.29h14a2.87,2.87,0,0,1,2.87,2.87,3,3,0,0,1-.86,2,2.83,2.83,0,0,1-2,.83l-12.63-.09,17,49.5a4.15,4.15,0,0,0,2.49,2.49,4.05,4.05,0,0,0,5.12-2.49l8.65-25.18H156.9A2.82,2.82,0,0,1,154,84.68v-.13a2.85,2.85,0,0,1,2.82-2.87h14.49l6.6-19.25a22.26,22.26,0,0,0-28.28-28.28Zm7.24-16.06c-2.69-7.66-10-12.47-19.37-11.48-1.07,11.65,7,20.27,18.25,20.23h2c11.38-.08,19.45-8.71,18.35-20.35C167,5.64,159.5,10.58,156.9,18.11Z"/><path class="cls-4" d="M211,34.17a22.53,22.53,0,0,0-15,23.29h14a2.87,2.87,0,0,1,2.87,2.87,3,3,0,0,1-.86,2,2.83,2.83,0,0,1-2,.83l-12.63-.09,17,49.5a4.15,4.15,0,0,0,2.49,2.49A4.05,4.05,0,0,0,222,112.6l8.65-25.18H218.19a2.82,2.82,0,0,1-2.87-2.74v-.13a2.85,2.85,0,0,1,2.82-2.87h14.49l6.6-19.25A22.26,22.26,0,0,0,211,34.15Zm7.24-16.06c-2.69-7.66-10-12.47-19.37-11.48-1.07,11.65,7,20.27,18.25,20.23h2c11.38-.08,19.45-8.71,18.35-20.35C228.25,5.64,220.79,10.58,218.19,18.11Z"/><path class="cls-4" d="M272.24,34.17a22.53,22.53,0,0,0-15,23.29h14a2.87,2.87,0,0,1,2.87,2.87,3,3,0,0,1-.86,2,2.83,2.83,0,0,1-2,.83l-12.63-.09,17,49.5a4.15,4.15,0,0,0,2.49,2.49,4.05,4.05,0,0,0,5.12-2.49l8.65-25.18H279.48a2.82,2.82,0,0,1-2.87-2.74v-.13a2.85,2.85,0,0,1,2.82-2.87h14.49l6.6-19.25a22.26,22.26,0,0,0-28.28-28.28Zm7.24-16.06c-2.69-7.66-10-12.47-19.37-11.48-1.07,11.65,7,20.27,18.25,20.23h2c11.38-.08,19.45-8.71,18.34-20.35C289.54,5.64,282.08,10.58,279.48,18.11Z"/><path class="cls-4" d="M333.53,34.17a22.53,22.53,0,0,0-15,23.29h14a2.87,2.87,0,0,1,2.87,2.87,3,3,0,0,1-.86,2,2.83,2.83,0,0,1-2,.83l-12.63-.09,17,49.5a4.15,4.15,0,0,0,2.49,2.49,4.05,4.05,0,0,0,5.12-2.49l8.65-25.18H340.77a2.82,2.82,0,0,1-2.87-2.74v-.13a2.85,2.85,0,0,1,2.82-2.87h14.49l6.6-19.25a22.26,22.26,0,0,0-28.28-28.28Zm7.24-16.06c-2.69-7.66-10-12.47-19.37-11.48-1.07,11.65,7,20.27,18.25,20.23h2c11.38-.08,19.45-8.71,18.34-20.35C350.83,5.64,343.37,10.58,340.77,18.11Z"/><path class="cls-4" d="M394.82,34.17a22.53,22.53,0,0,0-15,23.29h14a2.87,2.87,0,0,1,2.87,2.87,3,3,0,0,1-.86,2,2.84,2.84,0,0,1-2,.83l-12.62-.09,17,49.5a4.15,4.15,0,0,0,2.49,2.49,4,4,0,0,0,5.11-2.49l8.66-25.18H402.06a2.81,2.81,0,0,1-2.87-2.74v-.13A2.84,2.84,0,0,1,402,81.68h14.5l6.6-19.25a22.26,22.26,0,0,0-28.28-28.28Zm7.24-16.06c-2.7-7.66-10-12.47-19.37-11.48-1.08,11.65,7,20.27,18.25,20.23h2c11.38-.08,19.45-8.71,18.34-20.35C412.12,5.64,404.65,10.58,402.06,18.11Z"/><path class="cls-4" d="M456.11,34.17a22.53,22.53,0,0,0-15,23.29h14A2.86,2.86,0,0,1,458,60.33a3,3,0,0,1-.85,2,2.85,2.85,0,0,1-2,.83l-12.62-.09,17,49.5a4.15,4.15,0,0,0,2.49,2.49,4,4,0,0,0,5.11-2.49l8.66-25.18H463.35a2.81,2.81,0,0,1-2.87-2.74v-.13a2.84,2.84,0,0,1,2.81-2.87h14.5l6.6-19.25a22.26,22.26,0,0,0-28.28-28.28Zm7.24-16.06c-2.7-7.66-10-12.47-19.37-11.48-1.08,11.65,7,20.27,18.25,20.23h2c11.38-.08,19.45-8.71,18.34-20.35C473.41,5.64,465.94,10.58,463.35,18.11Z"/><path class="cls-4" d="M27.08,159.79a22.53,22.53,0,0,0-15,23.29h14A2.87,2.87,0,0,1,29,186a2.93,2.93,0,0,1-.86,2,2.83,2.83,0,0,1-2,.83l-12.63-.09,17,49.5A4.15,4.15,0,0,0,33,240.71a4.05,4.05,0,0,0,5.12-2.49L46.79,213H34.33a2.8,2.8,0,0,1-2.87-2.74.29.29,0,0,1,0-.13,2.83,2.83,0,0,1,2.81-2.87H48.76l6.6-19.25a22.26,22.26,0,0,0-28.28-28.28Zm7.25-16.06c-2.7-7.66-10-12.47-19.38-11.48-1.07,11.65,7,20.27,18.25,20.23h2c11.38-.08,19.45-8.71,18.35-20.35C44.38,131.26,36.92,136.2,34.33,143.73Z"/><path class="cls-4" d="M88.37,159.79a22.53,22.53,0,0,0-15,23.29h14A2.87,2.87,0,0,1,90.26,186a3,3,0,0,1-.86,2,2.83,2.83,0,0,1-2,.83l-12.63-.09,17,49.5a4.15,4.15,0,0,0,2.49,2.49,4.05,4.05,0,0,0,5.12-2.49L108.07,213H95.62a2.8,2.8,0,0,1-2.87-2.74.29.29,0,0,1,0-.13,2.83,2.83,0,0,1,2.81-2.87h14.49l6.6-19.25a22.26,22.26,0,0,0-28.28-28.28Zm7.25-16.06c-2.7-7.66-10.05-12.47-19.38-11.48-1.07,11.65,7,20.27,18.25,20.23h2c11.38-.08,19.45-8.71,18.35-20.35C105.67,131.26,98.21,136.2,95.62,143.73Z"/><path class="cls-4" d="M149.66,159.79a22.53,22.53,0,0,0-15,23.29h14a2.87,2.87,0,0,1,2.87,2.87,3,3,0,0,1-.86,2,2.83,2.83,0,0,1-2,.83l-12.63-.09,17,49.5a4.15,4.15,0,0,0,2.49,2.49,4.05,4.05,0,0,0,5.12-2.49L169.36,213H156.9A2.82,2.82,0,0,1,154,210.3v-.13a2.85,2.85,0,0,1,2.82-2.87h14.49l6.6-19.25a22.26,22.26,0,0,0-28.28-28.28Zm7.24-16.06c-2.69-7.66-10-12.47-19.37-11.48-1.07,11.65,7,20.27,18.25,20.23h2c11.38-.08,19.45-8.71,18.35-20.35C167,131.26,159.5,136.2,156.9,143.73Z"/><path class="cls-4" d="M211,159.79a22.53,22.53,0,0,0-15,23.29h14a2.87,2.87,0,0,1,2.87,2.87,3,3,0,0,1-.86,2,2.83,2.83,0,0,1-2,.83l-12.63-.09,17,49.5a4.15,4.15,0,0,0,2.49,2.49,4.05,4.05,0,0,0,5.12-2.49L230.65,213H218.19a2.82,2.82,0,0,1-2.87-2.74v-.13a2.85,2.85,0,0,1,2.82-2.87h14.49l6.6-19.25A22.26,22.26,0,0,0,211,159.77Zm7.24-16.06c-2.69-7.66-10-12.47-19.37-11.48-1.07,11.65,7,20.27,18.25,20.23h2c11.38-.08,19.45-8.71,18.35-20.35C228.25,131.26,220.79,136.2,218.19,143.73Z"/><path class="cls-4" d="M272.24,159.79a22.53,22.53,0,0,0-15,23.29h14a2.87,2.87,0,0,1,2.87,2.87,3,3,0,0,1-.86,2,2.83,2.83,0,0,1-2,.83l-12.63-.09,17,49.5a4.15,4.15,0,0,0,2.49,2.49,4.05,4.05,0,0,0,5.12-2.49L291.94,213H279.48a2.82,2.82,0,0,1-2.87-2.74v-.13a2.85,2.85,0,0,1,2.82-2.87h14.49l6.6-19.25a22.26,22.26,0,0,0-28.28-28.28Zm7.24-16.06c-2.69-7.66-10-12.47-19.37-11.48-1.07,11.65,7,20.27,18.25,20.23h2c11.38-.08,19.45-8.71,18.34-20.35C289.54,131.26,282.08,136.2,279.48,143.73Z"/><path class="cls-4" d="M333.53,159.79a22.53,22.53,0,0,0-15,23.29h14a2.87,2.87,0,0,1,2.87,2.87,3,3,0,0,1-.86,2,2.83,2.83,0,0,1-2,.83l-12.63-.09,17,49.5a4.15,4.15,0,0,0,2.49,2.49,4.05,4.05,0,0,0,5.12-2.49L353.23,213H340.77a2.82,2.82,0,0,1-2.87-2.74v-.13a2.85,2.85,0,0,1,2.82-2.87h14.49l6.6-19.25a22.26,22.26,0,0,0-28.28-28.28Zm7.24-16.06c-2.69-7.66-10-12.47-19.37-11.48-1.07,11.65,7,20.27,18.25,20.23h2c11.38-.08,19.45-8.71,18.34-20.35C350.83,131.26,343.37,136.2,340.77,143.73Z"/><path class="cls-4" d="M394.82,159.79a22.53,22.53,0,0,0-15,23.29h14a2.87,2.87,0,0,1,2.87,2.87,3,3,0,0,1-.86,2,2.84,2.84,0,0,1-2,.83l-12.62-.09,17,49.5a4.15,4.15,0,0,0,2.49,2.49,4,4,0,0,0,5.11-2.49L414.52,213H402.06a2.81,2.81,0,0,1-2.87-2.74v-.13A2.84,2.84,0,0,1,402,207.3h14.5l6.6-19.25a22.26,22.26,0,0,0-28.28-28.28Zm7.24-16.06c-2.7-7.66-10-12.47-19.37-11.48-1.08,11.65,7,20.27,18.25,20.23h2c11.38-.08,19.45-8.71,18.34-20.35C412.12,131.26,404.65,136.2,402.06,143.73Z"/><path class="cls-4" d="M456.11,159.79a22.53,22.53,0,0,0-15,23.29h14A2.86,2.86,0,0,1,458,186a3,3,0,0,1-.85,2,2.85,2.85,0,0,1-2,.83l-12.62-.09,17,49.5a4.15,4.15,0,0,0,2.49,2.49,4,4,0,0,0,5.11-2.49L475.81,213H463.35a2.81,2.81,0,0,1-2.87-2.74v-.13a2.84,2.84,0,0,1,2.81-2.87h14.5l6.6-19.25a22.26,22.26,0,0,0-28.28-28.28Zm7.24-16.06c-2.7-7.66-10-12.47-19.37-11.48-1.08,11.65,7,20.27,18.25,20.23h2c11.38-.08,19.45-8.71,18.34-20.35C473.41,131.26,465.94,136.2,463.35,143.73Z"/><path class="cls-4" d="M27.08,285.41a22.53,22.53,0,0,0-15,23.29h14A2.87,2.87,0,0,1,29,311.57a2.93,2.93,0,0,1-.86,2,2.83,2.83,0,0,1-2,.83l-12.63-.09,17,49.5A4.15,4.15,0,0,0,33,366.33a4.05,4.05,0,0,0,5.12-2.49l8.66-25.18H34.33a2.8,2.8,0,0,1-2.87-2.74.29.29,0,0,1,0-.13,2.83,2.83,0,0,1,2.81-2.87H48.76l6.6-19.25a22.26,22.26,0,0,0-28.28-28.28Zm7.25-16.06c-2.7-7.66-10-12.47-19.38-11.48-1.07,11.65,7,20.27,18.25,20.23h2c11.38-.08,19.45-8.71,18.35-20.35C44.38,256.88,36.92,261.82,34.33,269.35Z"/><path class="cls-4" d="M88.37,285.41a22.53,22.53,0,0,0-15,23.29h14a2.87,2.87,0,0,1,2.87,2.87,3,3,0,0,1-.86,2,2.83,2.83,0,0,1-2,.83l-12.63-.09,17,49.5a4.15,4.15,0,0,0,2.49,2.49,4.05,4.05,0,0,0,5.12-2.49l8.65-25.18H95.62a2.8,2.8,0,0,1-2.87-2.74.29.29,0,0,1,0-.13,2.83,2.83,0,0,1,2.81-2.87h14.49l6.6-19.25a22.26,22.26,0,0,0-28.28-28.28Zm7.25-16.06c-2.7-7.66-10.05-12.47-19.38-11.48-1.07,11.65,7,20.27,18.25,20.23h2c11.38-.08,19.45-8.71,18.35-20.35C105.67,256.88,98.21,261.82,95.62,269.35Z"/><path class="cls-4" d="M149.66,285.41a22.53,22.53,0,0,0-15,23.29h14a2.87,2.87,0,0,1,2.87,2.87,3,3,0,0,1-.86,2,2.83,2.83,0,0,1-2,.83l-12.63-.09,17,49.5a4.15,4.15,0,0,0,2.49,2.49,4.05,4.05,0,0,0,5.12-2.49l8.65-25.18H156.9a2.82,2.82,0,0,1-2.87-2.74v-.13a2.85,2.85,0,0,1,2.82-2.87h14.49l6.6-19.25a22.26,22.26,0,0,0-28.28-28.28Zm7.24-16.06c-2.69-7.66-10-12.47-19.37-11.48-1.07,11.65,7,20.27,18.25,20.23h2c11.38-.08,19.45-8.71,18.35-20.35C167,256.88,159.5,261.82,156.9,269.35Z"/><path class="cls-4" d="M211,285.41a22.53,22.53,0,0,0-15,23.29h14a2.87,2.87,0,0,1,2.87,2.87,3,3,0,0,1-.86,2,2.83,2.83,0,0,1-2,.83l-12.63-.09,17,49.5a4.15,4.15,0,0,0,2.49,2.49,4.05,4.05,0,0,0,5.12-2.49l8.65-25.18H218.19a2.82,2.82,0,0,1-2.87-2.74v-.13a2.85,2.85,0,0,1,2.82-2.87h14.49l6.6-19.25A22.26,22.26,0,0,0,211,285.39Zm7.24-16.06c-2.69-7.66-10-12.47-19.37-11.48-1.07,11.65,7,20.27,18.25,20.23h2c11.38-.08,19.45-8.71,18.35-20.35C228.25,256.88,220.79,261.82,218.19,269.35Z"/><path class="cls-4" d="M272.24,285.41a22.53,22.53,0,0,0-15,23.29h14a2.87,2.87,0,0,1,2.87,2.87,3,3,0,0,1-.86,2,2.83,2.83,0,0,1-2,.83l-12.63-.09,17,49.5a4.15,4.15,0,0,0,2.49,2.49,4.05,4.05,0,0,0,5.12-2.49l8.65-25.18H279.48a2.82,2.82,0,0,1-2.87-2.74v-.13a2.85,2.85,0,0,1,2.82-2.87h14.49l6.6-19.25a22.26,22.26,0,0,0-28.28-28.28Zm7.24-16.06c-2.69-7.66-10-12.47-19.37-11.48-1.07,11.65,7,20.27,18.25,20.23h2c11.38-.08,19.45-8.71,18.34-20.35C289.54,256.88,282.08,261.82,279.48,269.35Z"/><path class="cls-4" d="M333.53,285.41a22.53,22.53,0,0,0-15,23.29h14a2.87,2.87,0,0,1,2.87,2.87,3,3,0,0,1-.86,2,2.83,2.83,0,0,1-2,.83l-12.63-.09,17,49.5a4.15,4.15,0,0,0,2.49,2.49,4.05,4.05,0,0,0,5.12-2.49l8.65-25.18H340.77a2.82,2.82,0,0,1-2.87-2.74v-.13a2.85,2.85,0,0,1,2.82-2.87h14.49l6.6-19.25a22.26,22.26,0,0,0-28.28-28.28Zm7.24-16.06c-2.69-7.66-10-12.47-19.37-11.48-1.07,11.65,7,20.27,18.25,20.23h2c11.38-.08,19.45-8.71,18.34-20.35C350.83,256.88,343.37,261.82,340.77,269.35Z"/><path class="cls-4" d="M394.82,285.41a22.53,22.53,0,0,0-15,23.29h14a2.87,2.87,0,0,1,2.87,2.87,3,3,0,0,1-.86,2,2.84,2.84,0,0,1-2,.83l-12.62-.09,17,49.5a4.15,4.15,0,0,0,2.49,2.49,4,4,0,0,0,5.11-2.49l8.66-25.18H402.06a2.81,2.81,0,0,1-2.87-2.74v-.13a2.84,2.84,0,0,1,2.81-2.87h14.5l6.6-19.25a22.26,22.26,0,0,0-28.28-28.28Zm7.24-16.06c-2.7-7.66-10-12.47-19.37-11.48-1.08,11.65,7,20.27,18.25,20.23h2c11.38-.08,19.45-8.71,18.34-20.35C412.12,256.88,404.65,261.82,402.06,269.35Z"/><path class="cls-4" d="M456.11,285.41a22.53,22.53,0,0,0-15,23.29h14a2.86,2.86,0,0,1,2.87,2.87,3,3,0,0,1-.85,2,2.85,2.85,0,0,1-2,.83l-12.62-.09,17,49.5a4.15,4.15,0,0,0,2.49,2.49,4,4,0,0,0,5.11-2.49l8.66-25.18H463.35a2.81,2.81,0,0,1-2.87-2.74v-.13a2.84,2.84,0,0,1,2.81-2.87h14.5l6.6-19.25a22.26,22.26,0,0,0-28.28-28.28Zm7.24-16.06c-2.7-7.66-10-12.47-19.37-11.48-1.08,11.65,7,20.27,18.25,20.23h2c11.38-.08,19.45-8.71,18.34-20.35C473.41,256.88,465.94,261.82,463.35,269.35Z"/><path class="cls-4" d="M27.08,411a22.53,22.53,0,0,0-15,23.29h14A2.88,2.88,0,0,1,29,437.19a2.93,2.93,0,0,1-.86,2,2.83,2.83,0,0,1-2,.83L13.48,440l17,49.5A4.15,4.15,0,0,0,33,492a4.05,4.05,0,0,0,5.12-2.49l8.66-25.18H34.33a2.8,2.8,0,0,1-2.87-2.74.29.29,0,0,1,0-.13,2.83,2.83,0,0,1,2.81-2.87H48.76l6.6-19.25A22.26,22.26,0,0,0,27.08,411ZM34.33,395c-2.7-7.66-10-12.47-19.38-11.48-1.07,11.65,7,20.27,18.25,20.23h2c11.38-.08,19.45-8.71,18.35-20.35C44.38,382.5,36.92,387.44,34.33,395Z"/><path class="cls-4" d="M88.37,411a22.53,22.53,0,0,0-15,23.29h14a2.88,2.88,0,0,1,2.87,2.87,3,3,0,0,1-.86,2,2.83,2.83,0,0,1-2,.83L74.77,440l17,49.5A4.15,4.15,0,0,0,94.3,492a4.05,4.05,0,0,0,5.12-2.49l8.65-25.18H95.62a2.8,2.8,0,0,1-2.87-2.74.29.29,0,0,1,0-.13,2.83,2.83,0,0,1,2.81-2.87h14.49l6.6-19.25A22.26,22.26,0,0,0,88.37,411ZM95.62,395c-2.7-7.66-10.05-12.47-19.38-11.48-1.07,11.65,7,20.27,18.25,20.23h2c11.38-.08,19.45-8.71,18.35-20.35C105.67,382.5,98.21,387.44,95.62,395Z"/><path class="cls-4" d="M149.66,411a22.53,22.53,0,0,0-15,23.29h14a2.88,2.88,0,0,1,2.87,2.87,3,3,0,0,1-.86,2,2.83,2.83,0,0,1-2,.83L136.06,440l17,49.5a4.15,4.15,0,0,0,2.49,2.49,4.05,4.05,0,0,0,5.12-2.49l8.65-25.18H156.9a2.82,2.82,0,0,1-2.87-2.74v-.13a2.85,2.85,0,0,1,2.82-2.87h14.49l6.6-19.25A22.26,22.26,0,0,0,149.66,411ZM156.9,395c-2.69-7.66-10-12.47-19.37-11.48-1.07,11.65,7,20.27,18.25,20.23h2c11.38-.08,19.45-8.71,18.35-20.35C167,382.5,159.5,387.44,156.9,395Z"/><path class="cls-4" d="M211,411a22.53,22.53,0,0,0-15,23.29h14a2.88,2.88,0,0,1,2.87,2.87,3,3,0,0,1-.86,2,2.83,2.83,0,0,1-2,.83L197.35,440l17,49.5a4.15,4.15,0,0,0,2.49,2.49,4.05,4.05,0,0,0,5.12-2.49l8.65-25.18H218.19a2.82,2.82,0,0,1-2.87-2.74v-.13a2.85,2.85,0,0,1,2.82-2.87h14.49l6.6-19.25A22.26,22.26,0,0,0,211,411ZM218.19,395c-2.69-7.66-10-12.47-19.37-11.48-1.07,11.65,7,20.27,18.25,20.23h2c11.38-.08,19.45-8.71,18.35-20.35C228.25,382.5,220.79,387.44,218.19,395Z"/><path class="cls-4" d="M272.24,411a22.53,22.53,0,0,0-15,23.29h14a2.88,2.88,0,0,1,2.87,2.87,3,3,0,0,1-.86,2,2.83,2.83,0,0,1-2,.83L258.64,440l17,49.5a4.15,4.15,0,0,0,2.49,2.49,4.05,4.05,0,0,0,5.12-2.49l8.65-25.18H279.48a2.82,2.82,0,0,1-2.87-2.74v-.13a2.85,2.85,0,0,1,2.82-2.87h14.49l6.6-19.25A22.26,22.26,0,0,0,272.24,411ZM279.48,395c-2.69-7.66-10-12.47-19.37-11.48-1.07,11.65,7,20.27,18.25,20.23h2c11.38-.08,19.45-8.71,18.34-20.35C289.54,382.5,282.08,387.44,279.48,395Z"/><path class="cls-4" d="M333.53,411a22.53,22.53,0,0,0-15,23.29h14a2.88,2.88,0,0,1,2.87,2.87,3,3,0,0,1-.86,2,2.83,2.83,0,0,1-2,.83L319.93,440l17,49.5a4.15,4.15,0,0,0,2.49,2.49,4.05,4.05,0,0,0,5.12-2.49l8.65-25.18H340.77a2.82,2.82,0,0,1-2.87-2.74v-.13a2.85,2.85,0,0,1,2.82-2.87h14.49l6.6-19.25A22.26,22.26,0,0,0,333.53,411ZM340.77,395c-2.69-7.66-10-12.47-19.37-11.48-1.07,11.65,7,20.27,18.25,20.23h2c11.38-.08,19.45-8.71,18.34-20.35C350.83,382.5,343.37,387.44,340.77,395Z"/><path class="cls-4" d="M394.82,411a22.53,22.53,0,0,0-15,23.29h14a2.88,2.88,0,0,1,2.87,2.87,3,3,0,0,1-.86,2,2.84,2.84,0,0,1-2,.83L381.22,440l17,49.5a4.15,4.15,0,0,0,2.49,2.49,4,4,0,0,0,5.11-2.49l8.66-25.18H402.06a2.81,2.81,0,0,1-2.87-2.74v-.13a2.84,2.84,0,0,1,2.81-2.87h14.5l6.6-19.25A22.26,22.26,0,0,0,394.82,411ZM402.06,395c-2.7-7.66-10-12.47-19.37-11.48-1.08,11.65,7,20.27,18.25,20.23h2c11.38-.08,19.45-8.71,18.34-20.35C412.12,382.5,404.65,387.44,402.06,395Z"/><path class="cls-4" d="M456.11,411a22.53,22.53,0,0,0-15,23.29h14a2.87,2.87,0,0,1,2.87,2.87,3,3,0,0,1-.85,2,2.85,2.85,0,0,1-2,.83L442.51,440l17,49.5A4.15,4.15,0,0,0,462,492a4,4,0,0,0,5.11-2.49l8.66-25.18H463.35a2.81,2.81,0,0,1-2.87-2.74v-.13a2.84,2.84,0,0,1,2.81-2.87h14.5l6.6-19.25A22.26,22.26,0,0,0,456.11,411ZM463.35,395c-2.7-7.66-10-12.47-19.37-11.48-1.08,11.65,7,20.27,18.25,20.23h2c11.38-.08,19.45-8.71,18.34-20.35C473.41,382.5,465.94,387.44,463.35,395Z"/></g></g></svg>